<?xml version="1.0" encoding="UTF-8"?>
<svg enable-background="new 0 0 516 841" version="1.1" viewBox="0 0 516 841" xml:space="preserve" xmlns="http://www.w3.org/2000/svg">
<style type="text/css">
	.st0{fill:#FFEBCD;}
	.st1{fill:#F7E5C7;}
</style>
<polygon class="st0" points="86.3 395.05 86.35 445.05 43.07 470.09 -0.26 445.13 -0.3 395.13 42.98 370.09"/>
<polygon class="st0" points="172.3 395.05 172.35 445.05 129.07 470.09 85.74 445.13 85.7 395.13 128.98 370.09"/>
<polygon class="st0" points="129.3 320.05 129.35 370.05 86.07 395.09 42.74 370.13 42.7 320.13 85.98 295.09"/>
<polygon class="st0" points="173.3 246.05 173.35 296.05 130.07 321.09 86.74 296.13 86.7 246.13 129.98 221.09"/>
<polygon class="st0" points="428.74 395.05 428.7 445.05 471.98 470.09 515.3 445.13 515.35 395.13 472.07 370.09"/>
<polygon class="st0" points="343.74 395.05 343.7 445.05 386.98 470.09 430.3 445.13 430.35 395.13 387.07 370.09"/>
<polygon class="st0" points="386.74 320.05 386.7 370.05 429.98 395.09 473.3 370.13 473.35 320.13 430.07 295.09"/>
<polygon class="st0" points="342.74 246.05 342.7 296.05 385.98 321.09 429.3 296.13 429.35 246.13 386.07 221.09"/>
<polygon class="st0" points="257.74 246.05 257.7 296.05 300.98 321.09 344.3 296.13 344.35 246.13 301.07 221.09"/>
<polygon class="st1" points="171.74 246.05 171.7 296.05 214.98 321.09 258.3 296.13 258.35 246.13 215.07 221.09"/>
<polygon class="st1" points="128.74 320.05 128.7 370.05 171.98 395.09 215.3 370.13 215.35 320.13 172.07 295.09"/>
<polygon class="st0" points="257.3 395.05 257.35 445.05 214.07 470.09 170.74 445.13 170.7 395.13 213.98 370.09"/>
<polygon class="st0" points="213.74 320.05 213.7 370.05 256.98 395.09 300.3 370.13 300.35 320.13 257.07 295.09"/>
<polygon class="st0" points="343.3 395.05 343.35 445.05 300.07 470.09 256.74 445.13 256.7 395.13 299.98 370.09"/>
<polygon class="st0" points="301.74 469.05 301.7 519.05 344.98 544.09 388.3 519.13 388.35 469.13 345.07 444.09"/>
<polygon class="st0" points="215.3 469.05 215.35 519.05 172.07 544.09 128.74 519.13 128.7 469.13 171.98 444.09"/>
<polygon class="st0" points="301.3 469.05 301.35 519.05 258.07 544.09 214.74 519.13 214.7 469.13 257.98 444.09"/>
<polygon class="st0" points="258.74 544.05 258.7 594.05 301.98 619.09 345.3 594.13 345.35 544.13 302.07 519.09"/>
<polygon class="st0" points="258.3 544.05 258.35 594.05 215.07 619.09 171.74 594.13 171.7 544.13 214.98 519.09"/>
<polygon class="st0" points="299.74 320.05 299.7 370.05 342.98 395.09 386.3 370.13 386.35 320.13 343.07 295.09"/>
<polygon class="st0" points="216.3 171.05 216.35 221.05 173.07 246.09 129.74 221.13 129.7 171.13 172.98 146.09"/>
<polygon class="st1" points="301.3 171.05 301.35 221.05 258.07 246.09 214.74 221.13 214.7 171.13 257.98 146.09"/>
<polygon class="st0" points="386.3 171.05 386.35 221.05 343.07 246.09 299.74 221.13 299.7 171.13 342.98 146.09"/>
<polygon class="st0" points="262.3 98.05 262.35 148.05 219.07 173.09 175.74 148.13 175.7 98.13 218.98 73.09"/>
<polygon class="st0" points="348.3 99.05 348.35 149.05 305.07 174.09 261.74 149.13 261.7 99.13 304.98 74.09"/>
<polygon class="st0" points="304.3 25.05 304.35 75.05 261.07 100.09 217.74 75.13 217.7 25.13 260.98 0.09"/>
<polygon class="st0" points="259.3 743.13 259.35 693.13 216.07 668.09 172.74 693.05 172.7 743.05 215.98 768.09"/>
<polygon class="st0" points="345.3 742.13 345.35 692.13 302.07 667.09 258.74 692.05 258.7 742.05 301.98 767.09"/>
<polygon class="st0" points="301.3 816.13 301.35 766.13 258.07 741.09 214.74 766.05 214.7 816.05 257.98 841.09"/>
<polygon class="st0" points="129.3 519.13 129.35 469.13 86.07 444.09 42.74 469.05 42.7 519.05 85.98 544.09"/>
<polygon class="st0" points="173.3 593.13 173.35 543.13 130.07 518.09 86.74 543.05 86.7 593.05 129.98 618.09"/>
<polygon class="st0" points="386.74 519.13 386.7 469.13 429.98 444.09 473.3 469.05 473.35 519.05 430.07 544.09"/>
<polygon class="st0" points="342.74 593.13 342.7 543.13 385.98 518.09 429.3 543.05 429.35 593.05 386.07 618.09"/>
<polygon class="st0" points="216.3 668.13 216.35 618.13 173.07 593.09 129.74 618.05 129.7 668.05 172.98 693.09"/>
<polygon class="st0" points="301.3 668.13 301.35 618.13 258.07 593.09 214.74 618.05 214.7 668.05 257.98 693.09"/>
<polygon class="st0" points="386.3 668.13 386.35 618.13 343.07 593.09 299.74 618.05 299.7 668.05 342.98 693.09"/>
</svg>
