<?xml version="1.0" encoding="UTF-8"?>
<svg enable-background="new 0 0 750 661" version="1.1" viewBox="0 0 750 661" xml:space="preserve" xmlns="http://www.w3.org/2000/svg">
<style type="text/css">
	.st0{fill:#526B2D;}
	.st1{fill:#53350A;}
</style>
<polygon class="st0" points="117.3 75 117.3 25 74 0 30.7 25 30.7 75 74 100"/>
<polygon class="st0" points="203.3 75 203.3 25 160 0 116.7 25 116.7 75 160 100"/>
<polygon class="st0" points="289.3 75 289.3 25 246 0 202.7 25 202.7 75 246 100"/>
<polygon class="st0" points="375.3 75 375.3 25 332 0 288.7 25 288.7 75 332 100"/>
<polygon class="st0" points="461.3 75 461.3 25 418 0 374.7 25 374.7 75 418 100"/>
<polygon class="st0" points="547.3 75 547.3 25 504 0 460.7 25 460.7 75 504 100"/>
<polygon class="st0" points="633.3 75 633.3 25 590 0 546.7 25 546.7 75 590 100"/>
<polygon class="st0" points="719.3 75 719.3 25 676 0 632.7 25 632.7 75 676 100"/>
<polygon class="st0" points="117.3 220 117.3 170 74 145 30.7 170 30.7 220 74 245"/>
<polygon class="st0" points="203.3 220 203.3 170 160 145 116.7 170 116.7 220 160 245"/>
<polygon class="st0" points="289.3 220 289.3 170 246 145 202.7 170 202.7 220 246 245"/>
<polygon class="st0" points="375.3 220 375.3 170 332 145 288.7 170 288.7 220 332 245"/>
<polygon class="st0" points="461.3 220 461.3 170 418 145 374.7 170 374.7 220 418 245"/>
<polygon class="st0" points="547.3 220 547.3 170 504 145 460.7 170 460.7 220 504 245"/>
<polygon class="st0" points="633.3 220 633.3 170 590 145 546.7 170 546.7 220 590 245"/>
<polygon class="st0" points="719.3 220 719.3 170 676 145 632.7 170 632.7 220 676 245"/>
<polygon class="st0" points="160.3 150 160.3 100 117 75 73.7 100 73.7 150 117 175"/>
<polygon class="st0" points="246.3 150 246.3 100 203 75 159.7 100 159.7 150 203 175"/>
<polygon class="st0" points="332.3 150 332.3 100 289 75 245.7 100 245.7 150 289 175"/>
<polygon class="st0" points="418.3 150 418.3 100 375 75 331.7 100 331.7 150 375 175"/>
<polygon class="st0" points="504.3 150 504.3 100 461 75 417.7 100 417.7 150 461 175"/>
<polygon class="st0" points="590.3 149 590.3 99 547 74 503.7 99 503.7 149 547 174"/>
<polygon class="st0" points="676.3 149 676.3 99 633 74 589.7 99 589.7 149 633 174"/>
<polygon class="st0" points="117.3 270 117.3 220 74 195 30.7 220 30.7 270 74 295"/>
<polygon class="st0" points="203.3 270 203.3 220 160 195 116.7 220 116.7 270 160 295"/>
<polygon class="st0" points="289.3 270 289.3 220 246 195 202.7 220 202.7 270 246 295"/>
<polygon class="st0" points="375.3 270 375.3 220 332 195 288.7 220 288.7 270 332 295"/>
<polygon class="st0" points="461.3 270 461.3 220 418 195 374.7 220 374.7 270 418 295"/>
<polygon class="st0" points="547.3 270 547.3 220 504 195 460.7 220 460.7 270 504 295"/>
<polygon class="st0" points="633.3 270 633.3 220 590 195 546.7 220 546.7 270 590 295"/>
<polygon class="st0" points="719.3 270 719.3 220 676 195 632.7 220 632.7 270 676 295"/>
<polygon class="st0" points="117.3 415 117.3 365 74 340 30.7 365 30.7 415 74 440"/>
<polygon class="st0" points="203.3 415 203.3 365 160 340 116.7 365 116.7 415 160 440"/>
<polygon class="st0" points="289.3 415 289.3 365 246 340 202.7 365 202.7 415 246 440"/>
<polygon class="st0" points="375.3 415 375.3 365 332 340 288.7 365 288.7 415 332 440"/>
<polygon class="st0" points="461.3 415 461.3 365 418 340 374.7 365 374.7 415 418 440"/>
<polygon class="st0" points="547.3 415 547.3 365 504 340 460.7 365 460.7 415 504 440"/>
<polygon class="st0" points="633.3 415 633.3 365 590 340 546.7 365 546.7 415 590 440"/>
<polygon class="st0" points="719.3 415 719.3 365 676 340 632.7 365 632.7 415 676 440"/>
<polygon class="st0" points="160.3 345 160.3 295 117 270 73.7 295 73.7 345 117 370"/>
<polygon class="st0" points="246.3 345 246.3 295 203 270 159.7 295 159.7 345 203 370"/>
<polygon class="st0" points="332.3 345 332.3 295 289 270 245.7 295 245.7 345 289 370"/>
<polygon class="st0" points="418.3 345 418.3 295 375 270 331.7 295 331.7 345 375 370"/>
<polygon class="st0" points="504.3 345 504.3 295 461 270 417.7 295 417.7 345 461 370"/>
<polygon class="st0" points="590.3 344 590.3 294 547 269 503.7 294 503.7 344 547 369"/>
<polygon class="st0" points="676.3 344 676.3 294 633 269 589.7 294 589.7 344 633 369"/>
<polygon class="st0" points="418.3 444 418.3 394 375 369 331.7 394 331.7 444 375 469"/>
<polygon class="st1" points="418.3 491 418.3 441 375 416 331.7 441 331.7 491 375 516"/>
<polygon class="st1" points="332.3 490 332.3 440 289 415 245.7 440 245.7 490 289 515"/>
<polygon class="st1" points="504.3 490 504.3 440 461 415 417.7 440 417.7 490 461 515"/>
<polygon class="st1" points="375.3 564 375.3 514 332 489 288.7 514 288.7 564 332 589"/>
<polygon class="st1" points="461.3 560 461.3 510 418 485 374.7 510 374.7 560 418 585"/>
<polygon class="st1" points="419.3 635 419.3 585 376 560 332.7 585 332.7 635 376 660"/>
<polygon class="st1" points="333.3 634 333.3 584 290 559 246.7 584 246.7 634 290 659"/>
<polygon class="st1" points="505.3 634 505.3 584 462 559 418.7 584 418.7 634 462 659"/>
</svg>
