<?xml version="1.0" encoding="UTF-8"?>
<svg enable-background="new 0 0 257.6 246" version="1.1" viewBox="0 0 257.6 246" xml:space="preserve" xmlns="http://www.w3.org/2000/svg">
<style type="text/css">
	.st0{fill:#53350A;}
</style>
<polygon class="st0" points="171.6 79 171.6 29 128.3 4 85 29 85 79 128.3 104"/>
<polygon class="st0" points="85.6 75 85.6 25 42.3 0 -1 25 -1 75 42.3 100"/>
<polygon class="st0" points="257.6 75 257.6 25 214.3 0 171 25 171 75 214.3 100"/>
<polygon class="st0" points="128.6 149 128.6 99 85.3 74 42 99 42 149 85.3 174"/>
<polygon class="st0" points="214.6 145 214.6 95 171.3 70 128 95 128 145 171.3 170"/>
<polygon class="st0" points="172.6 221 172.6 171 129.3 146 86 171 86 221 129.3 246"/>
<polygon class="st0" points="86.6 219 86.6 169 43.3 144 0 169 0 219 43.3 244"/>
<polygon class="st0" points="258.6 219 258.6 169 215.3 144 172 169 172 219 215.3 244"/>
</svg>
