<?xml version="1.0" encoding="utf-8"?>
<!-- Generator: Adobe Illustrator 23.0.1, SVG Export Plug-In . SVG Version: 6.00 Build 0)  -->
<svg version="1.1" id="Layer_1" xmlns="http://www.w3.org/2000/svg" xmlns:xlink="http://www.w3.org/1999/xlink" x="0px" y="0px"
	 viewBox="0 0 688 440" style="enable-background:new 0 0 688 440;" xml:space="preserve">
<style type="text/css">
	.st0{fill:#526B2D;}
</style>
<polygon class="st0" points="86.3,75 86.3,25 43,0 -0.3,25 -0.3,75 43,100 "/>
<polygon class="st0" points="172.3,75 172.3,25 129,0 85.7,25 85.7,75 129,100 "/>
<polygon class="st0" points="258.3,75 258.3,25 215,0 171.7,25 171.7,75 215,100 "/>
<polygon class="st0" points="344.3,75 344.3,25 301,0 257.7,25 257.7,75 301,100 "/>
<polygon class="st0" points="430.3,75 430.3,25 387,0 343.7,25 343.7,75 387,100 "/>
<polygon class="st0" points="516.3,75 516.3,25 473,0 429.7,25 429.7,75 473,100 "/>
<polygon class="st0" points="602.3,75 602.3,25 559,0 515.7,25 515.7,75 559,100 "/>
<polygon class="st0" points="688.3,75 688.3,25 645,0 601.7,25 601.7,75 645,100 "/>
<polygon class="st0" points="86.3,220 86.3,170 43,145 -0.3,170 -0.3,220 43,245 "/>
<polygon class="st0" points="172.3,220 172.3,170 129,145 85.7,170 85.7,220 129,245 "/>
<polygon class="st0" points="258.3,220 258.3,170 215,145 171.7,170 171.7,220 215,245 "/>
<polygon class="st0" points="344.3,220 344.3,170 301,145 257.7,170 257.7,220 301,245 "/>
<polygon class="st0" points="430.3,220 430.3,170 387,145 343.7,170 343.7,220 387,245 "/>
<polygon class="st0" points="516.3,220 516.3,170 473,145 429.7,170 429.7,220 473,245 "/>
<polygon class="st0" points="602.3,220 602.3,170 559,145 515.7,170 515.7,220 559,245 "/>
<polygon class="st0" points="688.3,220 688.3,170 645,145 601.7,170 601.7,220 645,245 "/>
<polygon class="st0" points="129.3,150 129.3,100 86,75 42.7,100 42.7,150 86,175 "/>
<polygon class="st0" points="215.3,150 215.3,100 172,75 128.7,100 128.7,150 172,175 "/>
<polygon class="st0" points="301.3,150 301.3,100 258,75 214.7,100 214.7,150 258,175 "/>
<polygon class="st0" points="387.3,150 387.3,100 344,75 300.7,100 300.7,150 344,175 "/>
<polygon class="st0" points="473.3,150 473.3,100 430,75 386.7,100 386.7,150 430,175 "/>
<polygon class="st0" points="559.3,149 559.3,99 516,74 472.7,99 472.7,149 516,174 "/>
<polygon class="st0" points="645.3,149 645.3,99 602,74 558.7,99 558.7,149 602,174 "/>
<polygon class="st0" points="86.3,270 86.3,220 43,195 -0.3,220 -0.3,270 43,295 "/>
<polygon class="st0" points="172.3,270 172.3,220 129,195 85.7,220 85.7,270 129,295 "/>
<polygon class="st0" points="258.3,270 258.3,220 215,195 171.7,220 171.7,270 215,295 "/>
<polygon class="st0" points="344.3,270 344.3,220 301,195 257.7,220 257.7,270 301,295 "/>
<polygon class="st0" points="430.3,270 430.3,220 387,195 343.7,220 343.7,270 387,295 "/>
<polygon class="st0" points="516.3,270 516.3,220 473,195 429.7,220 429.7,270 473,295 "/>
<polygon class="st0" points="602.3,270 602.3,220 559,195 515.7,220 515.7,270 559,295 "/>
<polygon class="st0" points="688.3,270 688.3,220 645,195 601.7,220 601.7,270 645,295 "/>
<polygon class="st0" points="86.3,415 86.3,365 43,340 -0.3,365 -0.3,415 43,440 "/>
<polygon class="st0" points="172.3,415 172.3,365 129,340 85.7,365 85.7,415 129,440 "/>
<polygon class="st0" points="258.3,415 258.3,365 215,340 171.7,365 171.7,415 215,440 "/>
<polygon class="st0" points="344.3,415 344.3,365 301,340 257.7,365 257.7,415 301,440 "/>
<polygon class="st0" points="430.3,415 430.3,365 387,340 343.7,365 343.7,415 387,440 "/>
<polygon class="st0" points="516.3,415 516.3,365 473,340 429.7,365 429.7,415 473,440 "/>
<polygon class="st0" points="602.3,415 602.3,365 559,340 515.7,365 515.7,415 559,440 "/>
<polygon class="st0" points="688.3,415 688.3,365 645,340 601.7,365 601.7,415 645,440 "/>
<polygon class="st0" points="129.3,345 129.3,295 86,270 42.7,295 42.7,345 86,370 "/>
<polygon class="st0" points="215.3,345 215.3,295 172,270 128.7,295 128.7,345 172,370 "/>
<polygon class="st0" points="301.3,345 301.3,295 258,270 214.7,295 214.7,345 258,370 "/>
<polygon class="st0" points="387.3,345 387.3,295 344,270 300.7,295 300.7,345 344,370 "/>
<polygon class="st0" points="473.3,345 473.3,295 430,270 386.7,295 386.7,345 430,370 "/>
<polygon class="st0" points="559.3,344 559.3,294 516,269 472.7,294 472.7,344 516,369 "/>
<polygon class="st0" points="645.3,344 645.3,294 602,269 558.7,294 558.7,344 602,369 "/>
</svg>
