<svg xmlns="http://www.w3.org/2000/svg" viewBox="0 0 215.6 470">
    <g>
        <polygon fill="#FFFFFF" points="172.6 149 172.6 99 129.3 74 86 99 86 149 129.3 174 172.6 149"/>
        <polygon fill="#FFFFFF" points="215.6 75 215.6 25 172.3 0 129 25 129 75 172.3 100 215.6 75"/>
        <polygon fill="#FFFFFF" points="129.6 223 129.6 173 86.3 148 43 173 43 223 86.3 248 129.6 223"/>
        <polygon fill="#FFFFFF" points="172.6 297 172.6 247 129.3 222 86 247 86 297 129.3 322 172.6 297"/>
        <polygon fill="#FFFFFF" points="129.6 371 129.6 321 86.3 296 43 321 43 371 86.3 396 129.6 371"/>
        <polygon fill="#FFFFFF" points="86.6 445 86.6 395 43.3 370 0 395 0 445 43.3 470 86.6 445"/>
    </g>
</svg>