<?xml version="1.0" encoding="UTF-8"?>
<svg enable-background="new 0 0 746 681" version="1.1" viewBox="0 0 746 681" xml:space="preserve" xmlns="http://www.w3.org/2000/svg">
<style type="text/css">
	.st0{fill:#990000;}
	.st1{fill:#FFEBCD;}
	.st2{fill:#7E160C;}
</style>
<polygon class="st0" points="694.71 228.17 694.73 178.17 738.05 153.19 746 179 746 229 737.99 253.19"/>
<polygon class="st0" points="588.81 123.33 588.84 173.33 545.55 198.36 502.23 173.38 502.21 123.38 545.49 98.36"/>
<polygon class="st0" points="664.31 103.78 664.34 153.78 621.05 178.8 577.73 153.83 577.71 103.83 620.99 78.8"/>
<polygon class="st0" points="558.81 126.33 558.84 176.33 515.55 201.36 472.23 176.38 472.21 126.38 515.49 101.36"/>
<polygon class="st0" points="300.3 108.05 300.35 158.05 257.07 183.09 213.74 158.13 213.7 108.13 256.98 83.09"/>
<polygon class="st0" points="383.8 123.39 383.85 173.39 340.57 198.43 297.24 173.47 297.2 123.47 340.48 98.43"/>
<polygon class="st0" points="474.31 127.88 474.34 177.88 431.05 202.91 387.73 177.93 387.71 127.93 430.99 102.91"/>
<polygon class="st0" points="433.31 122.88 433.34 172.88 390.05 197.91 346.73 172.93 346.71 122.93 389.99 97.91"/>
<polygon class="st0" points="212.3 108.05 212.35 158.05 169.07 183.09 125.74 158.13 125.7 108.13 168.98 83.09"/>
<rect class="st1" x="60" y="155" width="643" height="231"/>
<polygon class="st2" points="84.4 278.83 84.42 228.83 41.14 203.8 -2.18 228.78 -2.21 278.78 41.08 303.8"/>
<polygon class="st2" points="127.35 351.86 127.38 301.86 84.1 276.83 40.78 301.8 40.75 351.8 84.04 376.83"/>
<polygon class="st0" points="85.31 426.83 85.34 376.83 42.05 351.81 -1.26 376.78 -1.29 426.78 41.99 451.81"/>
<polygon class="st0" points="128.27 499.86 128.29 449.86 85.01 424.83 41.69 449.81 41.66 499.81 84.95 524.83"/>
<polygon class="st0" points="171.22 574.88 171.25 524.88 127.96 499.86 84.65 524.83 84.62 574.83 127.9 599.86"/>
<polygon class="st2" points="170.31 425.88 170.34 375.88 127.05 350.86 83.74 375.83 83.71 425.83 126.99 450.86"/>
<polygon class="st0" points="214.27 499.91 214.29 449.91 171.01 424.88 127.69 449.86 127.66 499.86 170.95 524.88"/>
<polygon class="st0" points="257.22 574.93 257.25 524.93 213.96 499.91 170.65 524.88 170.62 574.88 213.9 599.91"/>
<polygon class="st2" points="256.31 426.93 256.34 376.93 213.05 351.91 169.74 376.88 169.71 426.88 212.99 451.91"/>
<polygon class="st2" points="341.31 426.98 341.34 376.98 298.05 351.96 254.74 376.93 254.71 426.93 297.99 451.96"/>
<polygon class="st0" points="300.27 499.96 300.29 449.96 257.01 424.93 213.69 449.91 213.66 499.91 256.95 524.93"/>
<polygon class="st0" points="343.22 574.98 343.25 524.98 299.96 499.96 256.65 524.93 256.62 574.93 299.9 599.96"/>
<polygon class="st0" points="386.27 500.01 386.29 450.01 343.01 424.98 299.69 449.96 299.66 499.96 342.95 524.98"/>
<polygon class="st0" points="429.22 574.03 429.25 524.03 385.96 499.01 342.65 523.98 342.62 573.98 385.91 599.01"/>
<polygon class="st2" points="427.31 427.03 427.34 377.03 384.05 352.01 340.73 376.98 340.71 426.98 383.99 452.01"/>
<polygon class="st0" points="472.26 500.06 472.29 450.06 429.01 425.03 385.69 450.01 385.66 500.01 428.95 525.03"/>
<polygon class="st0" points="488.22 574.07 488.25 524.07 444.96 499.04 401.65 524.02 401.62 574.02 444.91 599.04"/>
<polygon class="st1" points="128.35 203.91 128.38 153.91 85.1 128.88 41.78 153.86 41.75 203.86 85.04 228.88"/>
<polygon class="st2" points="660.31 426.17 660.34 376.17 617.05 351.14 573.74 376.12 573.71 426.12 616.99 451.14"/>
<polygon class="st0" points="582.29 464.12 582.32 414.12 539.03 389.1 495.71 414.07 495.68 464.07 538.97 489.1"/>
<polygon class="st0" points="534.26 502.1 534.29 452.1 491.01 427.07 447.69 452.04 447.66 502.04 490.95 527.07"/>
<polygon class="st0" points="616.26 500.14 616.29 450.14 573.01 425.12 529.69 450.09 529.66 500.09 572.95 525.12"/>
<polygon class="st2" points="599.31 427.13 599.34 377.13 556.05 352.11 512.73 377.08 512.71 427.08 555.99 452.11"/>
<polygon class="st2" points="513.31 427.08 513.34 377.08 470.05 352.06 426.73 377.03 426.71 427.03 469.99 452.06"/>
<polygon class="st0" points="573.22 575.12 573.25 525.12 529.96 500.09 486.65 525.07 486.62 575.07 529.9 600.09"/>
<polygon class="st0" points="214.18 647.91 214.21 597.91 170.92 572.88 127.6 597.86 127.58 647.86 170.86 672.88"/>
<polygon class="st2" points="659.79 279.17 659.82 229.17 703.14 204.2 746.42 229.22 746.4 279.22 703.08 304.2"/>
<polygon class="st2" points="84.4 130.08 84.42 180.08 41.14 205.11 -2.18 180.13 -2.21 130.13 41.08 105.11"/>
<polygon class="st2" points="127.35 57.06 127.38 107.06 84.1 132.08 40.78 107.11 40.75 57.11 84.04 32.08"/>
<polygon class="st2" points="169.3 33.05 169.35 83.05 126.07 108.09 82.74 83.13 82.7 33.13 125.98 8.09"/>
<polygon class="st2" points="255.3 32.97 255.35 82.97 212.07 108.01 168.74 83.05 168.7 33.05 211.98 8.01"/>
<polygon class="st2" points="340.3 32.89 340.35 82.89 297.07 107.93 253.74 82.97 253.7 32.97 296.98 7.93"/>
<polygon class="st2" points="426.31 32.88 426.34 82.88 383.05 107.91 339.73 82.93 339.71 32.93 382.99 7.91"/>
<polygon class="st2" points="512.31 32.83 512.34 82.83 469.05 107.86 425.73 82.88 425.71 32.88 468.99 7.86"/>
<polygon class="st2" points="127.35 104.06 127.38 154.06 84.1 179.08 40.78 154.11 40.75 104.11 84.04 79.08"/>
<polygon class="st0" points="169.3 80.05 169.35 130.05 126.07 155.09 82.74 130.13 82.7 80.13 125.98 55.09"/>
<polygon class="st0" points="255.3 79.97 255.35 129.97 212.07 155.01 168.74 130.05 168.7 80.05 211.98 55.01"/>
<polygon class="st0" points="340.3 79.89 340.35 129.89 297.07 154.93 253.74 129.97 253.7 79.97 296.98 54.93"/>
<polygon class="st0" points="426.31 79.88 426.34 129.88 383.05 154.91 339.73 129.93 339.71 79.93 382.99 54.91"/>
<polygon class="st0" points="512.31 79.83 512.34 129.83 469.05 154.86 425.73 129.88 425.71 79.88 468.99 54.86"/>
<polygon class="st0" points="658.71 427.17 658.73 377.17 702.05 352.19 745.34 377.22 745.31 427.22 701.99 452.19"/>
<polygon class="st0" points="701.71 352.17 701.73 302.17 745.05 277.19 746 295 746 363 744.99 377.19"/>
<polygon class="st0" points="-2 229 -2 180 17.05 153.19 60.34 178.22 60.31 228.22 16.99 253.19"/>
<polygon class="st0" points="0 346 0 346 -0.95 278.19 42.34 303.22 42.31 353.22 -1.01 378.19"/>
<polygon class="st0" points="615.66 500.14 615.69 450.14 659.01 425.17 702.29 450.19 702.26 500.19 658.95 525.17"/>
<polygon class="st0" points="572.62 575.12 572.65 525.12 615.96 500.14 659.25 525.17 659.22 575.17 615.9 600.14"/>
<polygon class="st0" points="529.58 648.09 529.6 598.09 572.92 573.12 616.21 598.14 616.18 648.14 572.86 673.12"/>
<polygon class="st0" points="300.18 647.96 300.21 597.96 256.92 572.93 213.6 597.91 213.58 647.91 256.86 672.93"/>
<polygon class="st0" points="299.58 647.96 299.6 597.96 342.92 572.98 386.21 598.01 386.18 648.01 342.86 672.98"/>
<polygon class="st0" points="443.18 648.04 443.21 598.04 399.92 573.02 356.6 597.99 356.58 647.99 399.86 673.02"/>
<polygon class="st0" points="529.18 648.09 529.21 598.09 485.92 573.07 442.6 598.04 442.58 648.04 485.86 673.07"/>
<polygon class="st0" points="528.58 648.09 528.6 598.09 571.92 573.12 615.21 598.14 615.18 648.14 571.86 673.12"/>
<polygon class="st1" points="297.3 134.05 297.35 184.05 254.07 209.09 210.74 184.13 210.7 134.13 253.98 109.09"/>
<polygon class="st1" points="212.3 134.05 212.35 184.05 169.07 209.09 125.74 184.13 125.7 134.13 168.98 109.09"/>
<polygon class="st1" points="468.3 134.05 468.35 184.05 425.07 209.09 381.74 184.13 381.7 134.13 424.98 109.09"/>
<polygon class="st1" points="382.3 134.05 382.35 184.05 339.07 209.09 295.74 184.13 295.7 134.13 338.98 109.09"/>
<polygon class="st1" points="676.3 134.05 676.35 184.05 633.07 209.09 589.74 184.13 589.7 134.13 632.98 109.09"/>
<polygon class="st0" points="692.31 88.78 692.34 138.78 649.05 163.8 605.73 138.83 605.71 88.83 648.99 63.8"/>
<polygon class="st0" points="727.31 140.78 727.34 190.78 684.05 215.8 640.73 190.83 640.71 140.83 683.99 115.8"/>
<polygon class="st2" points="615.75 58.77 615.78 108.77 659.1 133.74 702.38 108.72 702.35 58.72 659.04 33.74"/>
<polygon class="st2" points="659.79 129.74 659.82 179.74 703.14 204.72 746.42 179.69 746.4 129.69 703.08 104.72"/>
<polygon class="st2" points="659.31 33.74 659.34 83.74 616.05 108.77 572.74 83.8 572.71 33.8 615.99 8.77"/>
<polygon class="st2" points="598.26 36.5 594.09 86.33 548.86 107.63 507.79 79.11 511.95 29.28 557.19 7.98"/>
<polygon class="st0" points="125.3 154.05 125.35 204.05 82.07 229.09 38.74 204.13 38.7 154.13 81.98 129.09"/>
<polygon class="st2" points="616.75 352.14 616.78 302.14 660.1 277.17 703.38 302.2 703.35 352.2 660.04 377.17"/>
<polygon class="st0" points="598.31 79.78 598.34 129.78 555.05 154.8 511.73 129.83 511.71 79.83 554.99 54.8"/>
<polygon class="st1" points="554.3 134.05 554.35 184.05 511.07 209.09 467.74 184.13 467.7 134.13 510.98 109.09"/>
<polygon class="st1" points="640.3 134.05 640.35 184.05 597.07 209.09 553.74 184.13 553.7 134.13 596.98 109.09"/>
</svg>
