<svg xmlns="http://www.w3.org/2000/svg" viewBox="0 0 1920.5 385.51"><title>Asset 1</title><g id="Layer_2" data-name="Layer 2"><g id="Layer_1-2" data-name="Layer 1"><path d="M0,68.06c4.92-1.94,9.88-3.68,14.83-5.53s9.94-3.46,14.93-5.13,10-3.26,15-4.84,10-3.11,15.08-4.59c20.16-6,40.51-11.14,61-16A1262.93,1262.93,0,0,1,245.24,10.1Q308.06,2.32,371.7.56T499.24,2.88c42.62,2.82,85.3,7.67,127.66,14.57q15.87,2.61,31.69,5.55l15.78,3.07,7.89,1.56,7.85,1.66c21,4.36,41.73,9.33,62.38,14.52s41,10.84,61.18,16.78c10.14,2.91,20.09,6,30.11,9s19.91,6.16,29.71,9.31c19.74,6.28,39.11,12.7,58.37,19.11l57,19.14c37.63,12.56,74.61,24.77,111.43,35.85s73.51,21.37,110.74,30.4c9.27,2.42,18.62,4.45,28,6.63l14,3.29c2.33.58,4.68,1.07,7,1.55l7,1.48,28.2,6q14.18,2.7,28.37,5.52c9.45,2,19,3.52,28.49,5.19l14.29,2.55c4.77.86,9.53,1.74,14.33,2.44,19.16,2.87,38.33,6.32,57.67,8.72l14.5,2.05,7.26,1c2.42.35,4.84.74,7.27,1,9.71,1.11,19.43,2.31,29.18,3.49l14.63,1.85c4.88.58,9.78,1,14.67,1.52,9.8,1,19.61,2,29.45,3.1l7.38.82c2.46.25,4.93.41,7.39.62l14.81,1.27c9.88.87,19.79,1.75,29.72,2.71l29.85,2.12c10,.69,20,1.6,30,2.24s20.06,1.08,30.14,1.73l15.13,1c5.05.3,10.12.71,15.17.87l15.19.65,15.25.76c5.09.27,10.18.48,15.29.81l7.67.45c2.56.17,5.1.18,7.66.28,5.1.14,10.23.38,15.35.56s10.26.39,15.41.64,10.3.45,15.47.75,10.37.64,15.52.73c10.34.34,20.72.71,31.16,1.23s20.93,1.14,31.51,2q-14.12,7.11-28.45,13.67c-9.54,4.43-19.15,8.7-28.8,12.93l-3.62,1.58c-1.21.51-2.43,1-3.65,1.46l-7.3,2.9c-4.87,1.95-9.77,3.8-14.67,5.71s-9.8,3.77-14.72,5.61-9.85,3.73-14.79,5.52c-2.47.89-4.93,1.85-7.42,2.67l-7.47,2.49c-5,1.68-10,3.25-15,4.88l-15,4.83L1744.52,332c-2.52.76-5,1.63-7.56,2.3l-7.61,2.08-15.24,4.13c-10.17,2.77-20.38,5.43-30.62,8.07-2.56.69-5.13,1.28-7.7,1.84l-7.72,1.73-15.48,3.4-15.51,3.34c-5.18,1.09-10.36,2.25-15.56,3.22q-15.62,2.81-31.3,5.46l-15.71,2.63c-2.62.42-5.24.88-7.86,1.26l-7.89,1.06c-10.53,1.38-21.07,2.75-31.64,4.05-5.28.62-10.56,1.37-15.86,1.88l-15.91,1.43c-10.62.91-21.25,1.84-31.9,2.67-2.67.25-5.33.35-8,.5l-8,.39-16,.76c-21.38,1.19-42.8,1.13-64.27,1.25-5.37.1-10.73-.09-16.09-.24L1335,384.8c-10.74-.37-21.51-.56-32.23-1.38q-16.11-1-32.24-2.13c-5.38-.41-10.73-1-16.1-1.51l-16.1-1.6-8-.83c-2.69-.27-5.37-.55-8-.92l-16.06-2.1c-10.69-1.49-21.44-2.73-32.08-4.61-42.71-6.61-85.24-15.62-126.85-26.39S964.9,320,925.29,306.76c-9.83-3.37-19.74-6.69-29.46-10.11s-19.44-6.81-29.09-10.28c-19.23-6.88-38.32-13.85-57.12-20.74l-56-20.46c-18.56-6.75-37-13.29-55.4-19.74-36.81-12.75-73.51-25-110.57-36.18S513.17,167.63,475.3,158s-76.23-18.49-115-26.81S282.36,115.16,242.81,108,163.32,94,122.91,87.57c-20.21-3.18-40.55-6.43-61-9.55L31.08,73.2C20.77,71.58,10.41,69.91,0,68.06Z"/></g></g></svg>