<?xml version="1.0" encoding="utf-8"?>
<!-- Generator: Adobe Illustrator 23.0.1, SVG Export Plug-In . SVG Version: 6.00 Build 0)  -->
<svg version="1.1" id="Layer_1" xmlns="http://www.w3.org/2000/svg" xmlns:xlink="http://www.w3.org/1999/xlink" x="0px" y="0px"
	 viewBox="0 0 1920 1080" style="enable-background:new 0 0 1920 1080;" xml:space="preserve">
<style type="text/css">
	.st0{fill:#FFFFFF;}
</style>
<g>
	<polygon class="st0" points="211.3,230 211.3,180 168,155 124.7,180 124.7,230 168,255 	"/>
</g>
<g>
	<polygon class="st0" points="254.3,156 254.3,106 211,81 167.7,106 167.7,156 211,181 	"/>
</g>
<g>
	<polygon class="st0" points="168.3,304 168.3,254 125,229 81.7,254 81.7,304 125,329 	"/>
</g>
<g>
	<polygon class="st0" points="211.3,378 211.3,328 168,303 124.7,328 124.7,378 168,403 	"/>
</g>
<g>
	<polygon class="st0" points="168.3,452 168.3,402 125,377 81.7,402 81.7,452 125,477 	"/>
</g>
<g>
	<polygon class="st0" points="125.3,526 125.3,476 82,451 38.7,476 38.7,526 82,551 	"/>
</g>
</svg>
